<?xml version="1.0" encoding="utf-8"?>
<!-- Generator: Adobe Illustrator 22.0.1, SVG Export Plug-In . SVG Version: 6.00 Build 0)  -->
<svg version="1.1" id="Layer_1" xmlns="http://www.w3.org/2000/svg" xmlns:xlink="http://www.w3.org/1999/xlink" x="0px" y="0px"
	 viewBox="0 0 1000 1000" style="enable-background:new 0 0 1000 1000;" xml:space="preserve">
<style type="text/css">
	.st0{fill:#666666;}
</style>
<g id="shapes">
	<polygon class="st0" points="694.7,636 694.7,782.9 659,762.3 659,656.6 567.5,603.7 567.5,562.5 	"/>
	<polygon class="st0" points="627.2,168.9 500,242.4 372.8,168.9 500,95.5 	"/>
	<polygon class="st0" points="484.1,270 484.1,416.9 448.4,396.3 448.4,290.5 356.9,237.7 356.9,196.5 	"/>
	<polygon class="st0" points="643.1,196.5 643.1,238.9 551.6,291.8 551.6,396.3 515.9,416.9 515.9,270 	"/>
	<polygon class="st0" points="273.5,634.7 273.5,781.7 146.3,708.2 146.3,561.3 	"/>
	<polygon class="st0" points="432.5,561.3 432.5,603.7 341,656.6 341,761.1 305.3,781.7 305.3,634.7 	"/>
	<polygon class="st0" points="416.6,533.7 289.4,607.2 162.2,533.7 197.8,513.1 289.4,566 381,513.1 	"/>
	<polygon class="st0" points="432.5,318.1 432.5,465 381,494.8 365,504 305.3,538.5 305.3,391.5 356.9,361.8 372.8,352.6 	"/>
	<polygon class="st0" points="416.6,290.5 356.9,325 341,334.2 289.4,364 162.2,290.5 289.4,217.1 341,246.9 356.9,256 	"/>
	<polygon class="st0" points="273.5,391.5 273.5,538.5 213.7,504 197.8,494.8 146.3,465 146.3,318.1 	"/>
	<polygon class="st0" points="643.1,684.1 643.1,831 515.9,904.5 515.9,757.6 567.5,727.8 583.4,718.6 	"/>
	<polygon class="st0" points="627.2,656.6 567.5,691.1 551.6,700.3 500,730 448.4,700.3 432.5,691.1 372.8,656.6 432.5,622.1 
		448.4,612.9 500,583.1 551.6,612.9 567.5,622.1 	"/>
	<polygon class="st0" points="484.1,757.6 484.1,904.5 356.9,831 356.9,684.1 415.5,718 415.5,718 431.4,727.2 	"/>
	<polygon class="st0" points="837.8,291.8 710.6,365.3 659,335.5 643.1,326.3 583.4,291.8 643.1,257.3 659,248.1 710.6,218.3 	"/>
	<polygon class="st0" points="853.7,562.5 853.7,709.5 726.5,782.9 726.5,636 	"/>
	<polygon class="st0" points="837.8,535 710.6,608.4 583.4,535 619,514.4 710.6,567.3 802.2,514.4 	"/>
	<polygon class="st0" points="694.7,392.8 694.7,539.7 635,505.2 619,496 567.5,466.3 567.5,319.3 626.2,353.2 642.1,362.4 	"/>
	<polygon class="st0" points="853.7,319.3 853.7,466.3 802.2,496 786.3,505.2 726.5,539.7 726.5,392.8 	"/>
</g>
</svg>
